<svg width="36" height="36" viewBox="0 0 36 36" fill="none" xmlns="http://www.w3.org/2000/svg">
<path d="M36 18C36 22.8079 34.1277 27.3277 30.7279 30.7279C27.329 34.1268 22.8093 35.9992 18.0022 36H18C13.1921 36 8.67151 34.1277 5.27206 30.7279C1.87234 27.3277 0 22.8079 0 18C0 13.1921 1.87234 8.67151 5.27206 5.27206C8.67151 1.87234 13.1921 0 18 0H18.0022C22.8093 0.000823978 27.329 1.87317 30.7279 5.27206C34.1277 8.67151 36 13.1921 36 18Z" fill="#FF7236"/>
<path d="M24.8034 15.5246C21.8389 17.2247 22.3438 22.1874 25.5593 22.1874C26.9462 22.1874 28.1464 21.1449 28.6808 19.812C29.915 16.7336 27.3485 14.0644 24.8034 15.5246Z" fill="#FFFEFD"/>
<path d="M21.7585 16.1391C25.3153 16.1391 26.3803 10.0992 23.0011 9.10618C21.4616 8.65392 19.7109 9.73911 19.1486 11.7228C18.5177 13.9463 19.7589 16.1391 21.7585 16.1391Z" fill="#FFFEFD"/>
<path d="M20.8435 26.8903C20.3495 26.7537 19.4729 26.6658 18.5552 26.6531C17.5853 26.6389 16.5697 26.7084 15.9127 26.8903C14.138 27.3847 11.7232 26.1886 12.2531 23.7045C12.7431 21.408 14.504 21.5389 14.9204 19.3625C15.3399 17.163 16.9704 16.1015 18.5552 16.1844C20.0221 16.2614 21.4497 17.3192 21.8387 19.363C22.2526 21.5409 24.0098 21.4088 24.4992 23.7045C25.031 26.1906 22.6111 27.3802 20.8435 26.8903Z" fill="#FFFEFD"/>
<path d="M15.4988 16.1393C16.5049 16.1393 17.369 15.555 17.8491 14.6607C19.2764 12.0014 16.9322 8.32 14.256 9.10841C10.871 10.1041 11.944 16.1393 15.4988 16.1393Z" fill="#FFFEFD"/>
<path d="M13.8909 20.21C15.033 17.4157 12.3259 14.0024 9.74052 15.0764C6.62626 16.3699 7.99979 21.9488 11.424 21.9488C12.523 21.9488 13.4568 21.2723 13.8909 20.21Z" fill="#FFFEFD"/>
<path d="M20.8439 26.8902C20.3499 26.7537 19.4733 26.6657 18.5557 26.653V16.1844C20.0225 16.2614 21.4501 17.3192 21.8391 19.3629C22.2531 21.5408 24.0103 21.4087 24.4996 23.7044C25.0314 26.1905 22.6115 27.3801 20.8439 26.8902Z" fill="#FFFEFD"/>
</svg>
